<svg xmlns="http://www.w3.org/2000/svg" xmlns:xlink="http://www.w3.org/1999/xlink" width="500" zoomAndPan="magnify" viewBox="0 0 375 374.999991" height="500" preserveAspectRatio="xMidYMid meet" version="1.0"><defs><clipPath id="6282068e17"><path d="M 56.03125 56.03125 L 318.96875 56.03125 L 318.96875 318.96875 L 56.03125 318.96875 Z M 56.03125 56.03125 " clip-rule="nonzero"/></clipPath><clipPath id="9f76980f62"><path d="M 73.28125 56.03125 L 301.71875 56.03125 C 311.246094 56.03125 318.96875 63.753906 318.96875 73.28125 L 318.96875 301.71875 C 318.96875 311.246094 311.246094 318.96875 301.71875 318.96875 L 73.28125 318.96875 C 63.753906 318.96875 56.03125 311.246094 56.03125 301.71875 L 56.03125 73.28125 C 56.03125 63.753906 63.753906 56.03125 73.28125 56.03125 Z M 73.28125 56.03125 " clip-rule="nonzero"/></clipPath><clipPath id="95c7ca93bc"><path d="M 112.558594 146.875 L 222.1875 146.875 L 222.1875 241.6875 L 112.558594 241.6875 Z M 112.558594 146.875 " clip-rule="nonzero"/></clipPath><clipPath id="6c5df2c2fc"><path d="M 121 133.6875 L 145 133.6875 L 145 158 L 121 158 Z M 121 133.6875 " clip-rule="nonzero"/></clipPath><clipPath id="2d74f704ba"><path d="M 221 171 L 262.5 171 L 262.5 179 L 221 179 Z M 221 171 " clip-rule="nonzero"/></clipPath></defs><g clip-path="url(#6282068e17)"><g clip-path="url(#9f76980f62)"><path fill="#c4ff61" d="M 56.03125 56.03125 L 318.96875 56.03125 L 318.96875 318.96875 L 56.03125 318.96875 Z M 56.03125 56.03125 " fill-opacity="1" fill-rule="nonzero"/></g></g><g clip-path="url(#95c7ca93bc)"><path fill="#000000" d="M 118.46875 174.515625 L 132.480469 174.515625 C 132.5625 174.515625 132.640625 174.472656 132.683594 174.402344 C 133.644531 172.847656 144.125 156.007812 144.28125 155.691406 C 145.109375 154.449219 147.121094 152.683594 148.855469 152.210938 L 170.683594 147.015625 C 171.097656 146.925781 171.515625 146.882812 171.921875 146.882812 C 173.242188 146.863281 174.578125 147.285156 175.695312 148.171875 L 188.417969 162.246094 C 190.972656 164.285156 191.394531 168.015625 189.363281 170.578125 C 187.328125 173.144531 183.609375 173.566406 181.054688 171.527344 L 171.835938 160.75 C 171.007812 159.785156 169.722656 159.347656 168.480469 159.613281 L 161.320312 161.136719 C 161.226562 161.15625 161.183594 161.265625 161.234375 161.347656 L 181.109375 190.953125 C 182.210938 192.589844 183.382812 194.179688 184.625 195.714844 L 190.535156 203.027344 C 191.015625 203.621094 191.753906 203.941406 192.515625 203.890625 L 215.863281 202.253906 C 219.121094 202.027344 221.945312 204.492188 222.171875 207.757812 C 222.402344 211.027344 219.945312 213.859375 216.6875 214.089844 L 189.117188 216.019531 C 188.363281 216.074219 187.628906 215.980469 186.945312 215.765625 C 185.839844 215.4375 184.816406 214.78125 184.03125 213.816406 L 173.515625 200.804688 C 173.449219 200.722656 173.386719 200.640625 173.324219 200.558594 L 155.554688 213.523438 C 155.394531 213.640625 155.335938 213.859375 155.425781 214.042969 L 164.636719 233.242188 C 166.027344 236.140625 164.8125 239.625 161.921875 241.019531 L 161.738281 241.109375 C 158.84375 242.507812 155.375 241.285156 153.984375 238.386719 L 142.503906 214.453125 C 141.695312 212.769531 141.765625 210.894531 142.53125 209.339844 C 142.9375 208.417969 143.585938 207.589844 144.457031 206.953125 L 161.71875 194.359375 C 162.058594 194.109375 162.140625 193.636719 161.90625 193.289062 L 148.148438 172.792969 C 148.070312 172.679688 147.902344 172.679688 147.828125 172.796875 L 140.777344 183.679688 C 139.820312 185.15625 138.320312 186.0625 136.714844 186.308594 C 136.703125 186.308594 136.691406 186.3125 136.683594 186.3125 C 136.597656 186.324219 136.515625 186.335938 136.429688 186.34375 C 136.40625 186.347656 136.382812 186.347656 136.359375 186.351562 C 136.289062 186.359375 136.214844 186.363281 136.144531 186.367188 C 136.109375 186.371094 136.074219 186.371094 136.042969 186.371094 C 135.980469 186.375 135.917969 186.375 135.859375 186.375 C 135.839844 186.375 135.824219 186.378906 135.804688 186.378906 L 118.46875 186.378906 C 115.203125 186.378906 112.558594 183.722656 112.558594 180.445312 C 112.558594 177.171875 115.203125 174.515625 118.46875 174.515625 " fill-opacity="1" fill-rule="nonzero"/></g><g clip-path="url(#6c5df2c2fc)"><path fill="#000000" d="M 144.753906 145.5625 C 144.753906 139.003906 139.457031 133.6875 132.921875 133.6875 C 126.386719 133.6875 121.089844 139.003906 121.089844 145.5625 C 121.089844 152.117188 126.386719 157.433594 132.921875 157.433594 C 139.457031 157.433594 144.753906 152.117188 144.753906 145.5625 " fill-opacity="1" fill-rule="nonzero"/></g><g clip-path="url(#2d74f704ba)"><path fill="#000000" d="M 225.210938 178.171875 L 259.128906 178.171875 C 260.953125 178.171875 262.441406 176.675781 262.441406 174.847656 C 262.441406 173.019531 260.953125 171.523438 259.128906 171.523438 L 225.210938 171.523438 C 223.390625 171.523438 221.898438 173.019531 221.898438 174.847656 C 221.898438 176.675781 223.390625 178.171875 225.210938 178.171875 " fill-opacity="1" fill-rule="nonzero"/></g><path fill="#000000" d="M 214.011719 192.261719 L 241.777344 192.261719 C 243.597656 192.261719 245.089844 190.765625 245.089844 188.9375 C 245.089844 187.109375 243.597656 185.613281 241.777344 185.613281 L 214.011719 185.613281 C 212.1875 185.613281 210.699219 187.109375 210.699219 188.9375 C 210.699219 190.765625 212.1875 192.261719 214.011719 192.261719 " fill-opacity="1" fill-rule="nonzero"/><path fill="#000000" d="M 240.199219 159.332031 C 242.019531 159.332031 243.511719 160.828125 243.511719 162.65625 C 243.511719 164.488281 242.019531 165.980469 240.199219 165.980469 L 234.675781 165.980469 C 232.847656 165.980469 231.363281 164.496094 231.363281 162.65625 C 231.363281 160.820312 232.847656 159.332031 234.675781 159.332031 L 240.199219 159.332031 " fill-opacity="1" fill-rule="nonzero"/><path fill="#000000" d="M 206.28125 159.332031 L 223.316406 159.332031 C 225.148438 159.332031 226.632812 160.820312 226.632812 162.65625 C 226.632812 164.496094 225.148438 165.980469 223.316406 165.980469 L 206.28125 165.980469 C 204.457031 165.980469 202.96875 164.488281 202.96875 162.65625 C 202.96875 160.828125 204.457031 159.332031 206.28125 159.332031 " fill-opacity="1" fill-rule="nonzero"/></svg>