<?xml version="1.0" standalone="no"?>
<!DOCTYPE svg PUBLIC "-//W3C//DTD SVG 20010904//EN"
 "http://www.w3.org/TR/2001/REC-SVG-20010904/DTD/svg10.dtd">
<svg version="1.0" xmlns="http://www.w3.org/2000/svg"
 width="1690.000000pt" height="828.000000pt" viewBox="0 0 1690.000000 828.000000"
 preserveAspectRatio="xMidYMid meet">

<g transform="translate(0.000000,828.000000) scale(0.100000,-0.100000)"
fill="#000000" stroke="none">
<path d="M11462 4728 c4 -357 6 -387 25 -439 56 -151 176 -256 335 -294 64
-15 174 -20 202 -9 13 5 16 26 16 125 l0 119 -67 0 c-85 0 -134 13 -174 47
-54 46 -69 93 -69 221 l0 112 125 0 125 0 0 125 0 125 -125 0 -125 0 0 125 0
125 -136 0 -136 0 4 -382z"/>
<path d="M2224 4991 c-79 -36 -121 -125 -95 -204 7 -20 30 -51 51 -71 68 -62
158 -61 221 3 88 88 66 221 -45 272 -52 23 -80 23 -132 0z"/>
<path d="M2628 4882 c-51 -48 -154 -140 -228 -204 -74 -65 -164 -143 -199
-174 l-63 -58 -92 97 c-97 104 -114 112 -160 76 -19 -15 -26 -30 -26 -54 0
-30 16 -52 116 -164 67 -75 126 -132 140 -135 34 -9 56 5 159 101 49 46 95 82
102 81 7 -2 66 -65 131 -141 l119 -138 -38 -92 c-40 -96 -46 -134 -28 -169 13
-25 343 -188 381 -188 42 0 82 40 82 83 0 20 -8 44 -17 55 -9 10 -71 44 -137
76 -66 33 -120 64 -120 70 0 13 74 204 82 212 3 3 90 -93 193 -213 104 -120
195 -224 203 -230 24 -20 76 -15 106 8 20 16 26 29 26 59 0 36 -19 60 -282
367 -155 180 -312 363 -350 406 -37 42 -68 83 -68 90 1 6 20 29 45 50 l43 37
87 -94 c49 -53 96 -96 110 -98 44 -9 85 27 85 74 0 21 -28 59 -121 163 -154
173 -150 172 -281 47z"/>
<path d="M5281 4889 c-131 -25 -249 -116 -309 -238 l-37 -75 -3 -473 -3 -473
131 0 130 0 0 220 c0 121 2 220 4 220 2 0 27 -15 55 -34 150 -101 376 -60 512
92 162 182 154 480 -16 641 -115 109 -291 154 -464 120z m236 -262 c73 -39
112 -138 93 -239 -13 -65 -30 -91 -82 -125 -32 -22 -56 -28 -110 -31 -151 -9
-229 64 -228 213 2 141 76 209 220 202 44 -2 88 -11 107 -20z"/>
<path d="M6281 4889 c-60 -12 -166 -63 -217 -104 -155 -127 -191 -398 -79
-590 40 -68 115 -135 195 -174 70 -34 81 -36 170 -36 115 1 167 20 235 91 25
25 47 45 49 43 2 -2 12 -31 23 -64 l20 -60 133 -3 c124 -2 132 -1 125 15 -38
94 -65 263 -65 410 -1 246 -126 417 -342 468 -68 16 -177 18 -247 4z m214
-258 c57 -26 82 -58 100 -126 30 -112 -4 -212 -85 -252 -62 -32 -167 -32 -230
0 -110 57 -134 238 -43 338 19 21 49 43 67 48 54 16 148 12 191 -8z"/>
<path d="M7321 4890 c-73 -16 -168 -66 -225 -120 -172 -163 -180 -469 -16
-644 103 -109 200 -146 388 -146 67 0 141 6 183 16 l69 16 0 134 0 134 -27
-11 c-16 -6 -61 -17 -101 -25 -152 -29 -255 -11 -315 55 -41 45 -51 85 -45
170 5 67 37 119 91 148 66 35 276 28 380 -12 16 -7 17 2 15 126 l-3 133 -50
13 c-63 17 -286 25 -344 13z"/>
<path d="M8130 4886 c-116 -26 -206 -84 -270 -174 -105 -147 -108 -390 -7
-539 44 -63 139 -135 218 -163 90 -32 287 -38 414 -13 l90 18 3 123 3 123 -68
-8 c-37 -4 -129 -8 -203 -8 -121 0 -139 2 -177 22 -41 23 -73 57 -73 79 0 8
19 6 63 -8 81 -26 233 -21 320 10 163 59 238 186 197 334 -44 156 -289 254
-510 204z m235 -271 c14 -13 25 -29 25 -35 0 -22 -41 -49 -87 -56 -53 -8 -211
10 -226 25 -14 14 46 68 87 80 17 5 64 10 104 10 65 1 76 -2 97 -24z"/>
<path d="M9115 4890 c-161 -34 -276 -127 -337 -270 -23 -55 -23 -59 -26 -522
l-3 -468 131 0 130 0 0 220 c0 234 3 247 46 199 48 -54 193 -83 295 -59 157
37 282 155 331 314 27 89 22 233 -11 315 -69 170 -219 269 -421 276 -52 2
-113 0 -135 -5z m195 -250 c72 -20 130 -108 130 -198 0 -134 -81 -211 -221
-212 -135 0 -202 72 -202 214 0 110 35 164 133 199 25 9 123 7 160 -3z"/>
<path d="M10106 4888 c-243 -46 -400 -274 -358 -520 46 -268 288 -438 529
-373 56 15 76 27 122 72 30 29 56 53 57 53 1 0 12 -29 24 -65 l22 -65 129 0
c71 0 129 2 129 5 0 3 -12 44 -26 92 -20 70 -27 124 -34 264 -11 196 -27 266
-80 348 -100 156 -301 230 -514 189z m225 -261 c55 -29 89 -87 96 -165 13
-148 -61 -231 -205 -232 -142 0 -211 70 -212 213 0 139 70 206 216 207 45 0
72 -6 105 -23z"/>
<path d="M11202 4885 c-35 -8 -86 -25 -115 -38 -67 -31 -156 -112 -190 -174
-50 -93 -57 -144 -57 -425 l0 -258 130 0 130 0 0 225 c0 268 8 316 59 365 45
43 97 60 185 60 l67 0 -3 128 -3 127 -70 2 c-38 1 -98 -4 -133 -12z"/>
<path d="M12430 4882 c-147 -38 -250 -136 -301 -282 -21 -60 -23 -87 -27 -337
l-4 -273 135 0 136 0 3 268 c3 297 5 306 73 357 73 56 217 41 269 -28 40 -53
46 -98 46 -354 l0 -243 130 0 130 0 0 263 c0 341 -14 399 -123 514 -108 114
-294 160 -467 115z"/>
<path d="M13460 4889 c-70 -14 -181 -73 -232 -125 -170 -172 -171 -477 -4
-645 124 -125 317 -166 576 -122 l100 16 0 124 0 124 -67 -8 c-38 -4 -126 -8
-198 -8 -114 0 -135 3 -175 22 -37 19 -80 64 -80 86 0 3 27 -4 61 -14 110 -34
279 -20 381 32 135 69 189 212 128 342 -65 139 -281 217 -490 176z m215 -261
c14 -6 28 -23 32 -36 8 -34 -23 -59 -85 -68 -49 -7 -210 10 -224 24 -12 12 44
62 88 77 48 17 154 19 189 3z"/>
<path d="M14434 4885 c-187 -41 -321 -175 -354 -354 -6 -29 -10 -163 -10 -297
l0 -244 135 0 135 0 0 253 c0 242 1 255 23 297 32 65 87 93 194 98 l84 5 -3
126 -3 126 -70 2 c-38 1 -98 -4 -131 -12z"/>
<path d="M3100 4816 c-18 -22 -8 -59 20 -73 19 -10 118 -13 398 -13 359 0 373
1 392 20 23 23 24 33 10 61 -10 18 -25 19 -409 19 -335 0 -400 -2 -411 -14z"/>
<path d="M3099 4569 c-8 -16 -8 -28 0 -45 l11 -24 464 0 c464 0 465 0 477 21
8 16 8 28 0 45 l-11 24 -464 0 c-464 0 -465 0 -477 -21z"/>
<path d="M3105 4340 c-15 -16 -17 -26 -9 -48 l9 -27 405 0 405 0 10 29 c8 24
6 31 -14 47 -22 18 -45 19 -406 19 -371 0 -382 -1 -400 -20z"/>
</g>
</svg>
