<svg xmlns="http://www.w3.org/2000/svg" xmlns:xlink="http://www.w3.org/1999/xlink" version="1.1" style="shape-rendering:geometricPrecision; text-rendering:geometricPrecision; image-rendering:optimizeQuality; fill-rule:evenodd; clip-rule:evenodd" viewBox="5.5 23.44 388 190.06">
<g><path style="opacity:0.963" fill="#c4ff60" d="M 342.5,23.5 C 360.824,22.6585 369.658,31.3252 369,49.5C 363.223,65.3008 352.389,70.1342 336.5,64C 326.541,56.7914 323.708,47.2914 328,35.5C 331.44,29.7124 336.273,25.7124 342.5,23.5 Z"/></g>
<g><path style="opacity:1" fill="#e8fec4" d="M 240.5,25.5 C 242.045,26.2297 242.878,27.563 243,29.5C 246.564,62.2132 250.398,94.8799 254.5,127.5C 248.514,118.203 242.514,108.87 236.5,99.5C 235.05,97.0135 233.884,97.3469 233,100.5C 225.511,125.455 218.178,150.455 211,175.5C 205.308,163.792 200.475,151.792 196.5,139.5C 211.361,101.583 226.028,63.5834 240.5,25.5 Z"/></g>
<g><path style="opacity:1" fill="#7ba13d" d="M 393.5,213.5 C 365.167,213.5 336.833,213.5 308.5,213.5C 290.5,184.833 272.5,156.167 254.5,127.5C 250.398,94.8799 246.564,62.2132 243,29.5C 242.878,27.563 242.045,26.2297 240.5,25.5C 240.783,24.7109 241.283,24.0442 242,23.5C 268.919,69.6701 295.586,116.003 322,162.5C 345.812,179.645 369.646,196.645 393.5,213.5 Z"/></g>
<g><path style="opacity:0.976" fill="#c2fd5f" d="M 126.5,53.5 C 119.64,56.4046 112.64,59.238 105.5,62C 107.584,62.6972 109.251,63.8639 110.5,65.5C 111.145,66.8118 112.145,67.8118 113.5,68.5C 114.266,76.1757 114.933,83.8424 115.5,91.5C 131.342,91.8296 147.009,91.4963 162.5,90.5C 163.391,91.1098 164.391,91.4431 165.5,91.5C 129.216,92.1972 92.2156,92.8638 54.5,93.5C 54.9528,92.5416 55.6195,91.7083 56.5,91C 60.2198,89.1401 63.8864,87.3068 67.5,85.5C 80.425,84.6854 93.425,84.1854 106.5,84C 96.3749,78.6027 86.0416,73.7693 75.5,69.5C 81.6027,64.5722 87.6027,59.4055 93.5,54C 104.495,53.5002 115.495,53.3335 126.5,53.5 Z"/></g>
<g><path style="opacity:1" fill="#96c349" d="M 126.5,53.5 C 140.115,65.447 153.115,78.1137 165.5,91.5C 164.391,91.4431 163.391,91.1098 162.5,90.5C 145.415,81.6239 128.082,73.2906 110.5,65.5C 109.251,63.8639 107.584,62.6972 105.5,62C 112.64,59.238 119.64,56.4046 126.5,53.5 Z"/></g>
<g><path style="opacity:1" fill="#b0fe2e" d="M 110.5,65.5 C 128.082,73.2906 145.415,81.6239 162.5,90.5C 147.009,91.4963 131.342,91.8296 115.5,91.5C 114.933,83.8424 114.266,76.1757 113.5,68.5C 112.145,67.8118 111.145,66.8118 110.5,65.5 Z"/></g>
<g><path style="opacity:0.981" fill="#cafe73" d="M 75.5,69.5 C 86.0416,73.7693 96.3749,78.6027 106.5,84C 93.425,84.1854 80.425,84.6854 67.5,85.5C 67.3893,84.8826 67.056,84.3826 66.5,84C 57.8829,81.6284 49.5496,78.7951 41.5,75.5C 52.7575,73.1154 64.0908,71.1154 75.5,69.5 Z"/></g>
<g><path style="opacity:1" fill="#90bb47" d="M 41.5,75.5 C 49.5496,78.7951 57.8829,81.6284 66.5,84C 67.056,84.3826 67.3893,84.8826 67.5,85.5C 63.8864,87.3068 60.2198,89.1401 56.5,91C 55.6195,91.7083 54.9528,92.5416 54.5,93.5C 44.9163,90.185 35.2497,87.0183 25.5,84C 30.7017,80.8994 36.0351,78.0661 41.5,75.5 Z"/></g>
<g><path style="opacity:0.998" fill="#c4ff61" d="M 236.5,99.5 C 235.853,100.274 235.52,101.274 235.5,102.5C 241.019,139.467 246.352,176.467 251.5,213.5C 228.167,213.5 204.833,213.5 181.5,213.5C 180.791,176.834 180.124,140.168 179.5,103.5C 185.167,115.5 190.833,127.5 196.5,139.5C 200.475,151.792 205.308,163.792 211,175.5C 218.178,150.455 225.511,125.455 233,100.5C 233.884,97.3469 235.05,97.0135 236.5,99.5 Z"/></g>
<g><path style="opacity:1" fill="#b1fe2e" d="M 236.5,99.5 C 242.514,108.87 248.514,118.203 254.5,127.5C 272.5,156.167 290.5,184.833 308.5,213.5C 289.5,213.5 270.5,213.5 251.5,213.5C 246.352,176.467 241.019,139.467 235.5,102.5C 235.52,101.274 235.853,100.274 236.5,99.5 Z"/></g>
<g><path style="opacity:1" fill="#b1ff2f" d="M 179.5,103.5 C 180.124,140.168 180.791,176.834 181.5,213.5C 181.167,213.5 180.833,213.5 180.5,213.5C 168.882,198.043 157.049,182.709 145,167.5C 144.517,166.552 144.351,165.552 144.5,164.5C 155.614,143.199 167.281,122.866 179.5,103.5 Z"/></g>
<g><path style="opacity:0.997" fill="#c4ff61" d="M 144.5,164.5 C 144.351,165.552 144.517,166.552 145,167.5C 157.049,182.709 168.882,198.043 180.5,213.5C 154.167,213.5 127.833,213.5 101.5,213.5C 109.827,190.844 118.16,168.177 126.5,145.5C 126.639,143.663 127.306,143.33 128.5,144.5C 133.507,151.499 138.841,158.165 144.5,164.5 Z"/></g>
<g><path style="opacity:1" fill="#e9ffc6" d="M 126.5,145.5 C 118.16,168.177 109.827,190.844 101.5,213.5C 69.5,213.5 37.5,213.5 5.5,213.5C 21.7868,198.216 38.1201,182.883 54.5,167.5C 67.5,174.333 80.5,181.167 93.5,188C 94.5,188.667 95.5,188.667 96.5,188C 105.974,173.376 115.974,159.209 126.5,145.5 Z"/></g>
</svg>